PathFileType	4	(X/Y/Z)	../Python\running\Running06\task.trc
DataRate	CameraRate	NumFrames	NumMarkers	Units	OrigDataRate	OrigDataStartFrame	OrigNumFrames
200.000000	200.000000	4	30	mm	200.000000	0	208
Frame#	Time	C7			RBAK			CLAV			STRN			RASI			LASI			PE01			RTH1			RTH2			RTH3			RD5M			RTOE			LTH2			LTH3			LTB2			LTB3			LHEE			LTOE			LD5M			RHEE			RTB2			LPSI			RPSI			T10			RTB3			RTB1			PE03			PE02			LTH1			LTB1			
		X1	Y1	Z1	X2	Y2	Z2	X3	Y3	Z3	X4	Y4	Z4	X5	Y5	Z5	X6	Y6	Z6	X7	Y7	Z7	X8	Y8	Z8	X9	Y9	Z9	X10	Y10	Z10	X11	Y11	Z11	X12	Y12	Z12	X13	Y13	Z13	X14	Y14	Z14	X15	Y15	Z15	X16	Y16	Z16	X17	Y17	Z17	X18	Y18	Z18	X19	Y19	Z19	X20	Y20	Z20	X21	Y21	Z21	X22	Y22	Z22	X23	Y23	Z23	X24	Y24	Z24	X25	Y25	Z25	X26	Y26	Z26	X27	Y27	Z27	X28	Y28	Z28	X29	Y29	Z29	X30	Y30	Z30	

1	0	-1743.324951171876	1285.678588867188	166.445785522461	-1813.539306640626	1178.983032226563	257.7629699707032	-1631.104248046876	1174.040283203125	172.2233581542969	-1609.832763671876	976.314086914063	154.4133911132813	-1718.137329101563	808.6991577148442	287.1477355957032	-1679.853881835938	777.322875976563	63.56818008422854	-1863.767700195313	911.507690429688	134.0861968994141	-1793.505493164063	528.4053344726565	315.2985229492189	-1774.420288085938	451.7072753906252	299.4957885742189	-1748.011474609376	506.0215148925784	312.7572326660157	-1895.826904296876	12.99615478515626	244.2204742431642	-1853.169433593751	23.69598007202149	192.0734405517579	-1677.501464843751	476.8960266113284	33.85809326171876	-1620.921264648438	532.0263671875002	20.96104621887208	-1819.043212890626	303.0342712402345	39.08726501464845	-1773.954101562501	283.6150207519532	43.90578079223634	-1999.827270507813	233.3150939941407	90.610710144043	-1877.909301757813	100.3377380371094	70.55061340332034	-1906.421142578126	121.2937088012696	21.90124130249024	-2038.635253906251	44.67021560668947	168.9939422607422	-1881.529785156251	219.1892242431642	270.4916076660157	-1871.746093750001	871.2895507812505	97.08694458007818	-1885.996826171876	887.2077636718755	182.4526062011719	-1826.146240234376	1004.993713378907	127.4220504760743	-1869.888427734376	174.3007812500001	250.851776123047	nan	nan	nan	-1893.723632812501	853.9359741210942	115.0895767211915	-1903.174316406251	865.8117065429692	163.2522277832032	-1672.174682617188	535.5996704101565	14.81332302093507	-1748.801635742188	339.2565917968751	32.91721725463869	
2	0.005	-1728.566040039063	1288.8359375	165.9770507812501	-1795.401123046876	1182.259033203125	260.1529846191407	-1615.418334960938	1177.667846679688	169.8535614013672	-1594.440429687501	979.6574096679692	152.7497100830079	-1701.987792968751	809.5822143554692	287.5104370117189	-1664.688598632813	779.9248657226567	63.28246688842776	-1848.322143554688	913.901733398438	136.7248992919922	-1786.632934570313	530.2127075195315	314.0733947753907	-1770.104125976563	453.1985473632815	297.8712158203126	-1742.036865234376	506.597839355469	311.0579223632814	-1896.008056640626	12.97414875030518	243.7546539306642	-1852.969970703126	23.65630149841309	191.9608764648438	-1655.046386718751	482.5769348144534	34.36850357055665	-1601.685791015626	539.394226074219	20.63813972473145	-1790.996948242188	300.8936157226564	38.81564331054689	-1744.982788085938	283.623992919922	43.5836639404297	-1968.238159179688	221.2779541015626	88.52277374267581	-1840.198730468751	95.62050628662112	68.891716003418	-1868.833007812501	115.296501159668	20.25886726379395	-2039.364746093751	48.00926208496097	169.6707916259766	-1879.923706054688	221.0045318603517	269.4966125488282	-1856.629638671876	874.0747680664067	99.08802795410162	-1870.272460937501	889.047485351563	184.4863586425782	-1810.424682617188	1007.257629394532	130.007797241211	-1868.962036132813	175.9328002929688	249.7254486083986	nan	nan	nan	-1878.156127929688	856.7610473632817	116.2971115112305	-1887.351562500001	867.2476196289067	164.8040161132813	-1652.383300781251	540.884216308594	14.84814262390137	-1722.392456054688	340.5844726562501	33.44467544555665	
3	0.01	-1713.710693359376	1292.072875976563	165.4640808105469	-1777.288085937501	1185.746459960938	262.3621826171876	-1599.722412109376	1181.398315429688	167.4916076660157	-1578.968872070313	983.1127929687505	151.1151275634766	-1685.685791015626	810.6578979492192	287.8443908691407	-1649.338500976563	782.7709960937505	63.04409790039065	-1832.666259765626	916.4024047851567	139.3068847656251	-1779.152954101563	532.3201293945315	312.8367919921876	-1765.137695312501	455.0536193847659	296.2290649414064	-1735.439208984376	507.5151062011721	309.2709960937501	-1896.083496093751	13.08557128906251	243.3164520263673	-1852.802246093751	23.61129760742188	191.8370361328126	-1632.985595703126	488.305114746094	35.0448570251465	-1582.565307617188	546.5895996093752	20.32821083068848	-1762.929443359376	298.5952148437501	38.60861968994142	-1716.099609375001	283.5505676269532	43.34911727905275	-1936.108032226563	209.4091949462892	86.64411926269534	-1802.268798828126	91.17644500732425	67.61185455322268	-1831.020385742188	109.4948883056641	18.94879341125489	-2039.518554687501	51.91901397705081	170.3125457763672	-1877.984985351563	223.3664855957032	268.5320434570314	-1841.307006835938	876.9797363281255	101.0459136962891	-1854.377929687501	891.0627441406255	186.4756317138672	-1794.606933593751	1009.655822753907	132.6504211425782	-1867.633789062501	178.1119995117188	248.6807403564454	nan	nan	nan	-1862.402954101563	859.7234497070317	117.4921493530274	-1871.401977539063	868.890014648438	166.2999267578126	-1632.762939453126	546.2192993164065	14.99565315246583	-1696.176391601563	341.6837768554689	33.93955993652345	
4	0.015	-1698.759155273438	1295.389038085938	164.9069213867188	-1759.199829101563	1189.4443359375	264.3906860351564	-1584.016357421876	1185.230834960938	165.1375122070313	-1563.418334960938	986.6796264648442	149.5096130371094	-1669.232299804688	811.9252929687505	288.1500854492189	-1633.803588867188	785.8607788085942	62.8532409667969	-1816.800292968751	919.0089721679692	141.8319549560547	-1771.067749023438	534.7254028320315	311.5888977050782	-1759.521850585938	457.2687988281252	294.5704956054689	-1728.220703125001	508.770446777344	307.3975830078126	-1896.052978515626	13.33102130889893	242.9056701660157	-1852.667114257813	23.56028938293458	191.7020721435547	-1611.317749023438	494.0776367187502	35.88518524169923	-1563.559326171876	553.6143188476565	20.03370475769044	-1734.839233398438	296.1386718750001	38.46574783325197	-1687.303833007813	283.3938903808595	43.20227050781251	-1903.437255859376	197.7127990722657	84.97609710693362	-1764.120361328126	87.00469207763675	66.7100524902344	-1792.985473632813	103.8883056640626	17.971097946167	-2039.089111328126	56.39971160888675	170.9147338867188	-1875.712036132813	226.2738189697267	267.5975341796876	-1825.778442382813	880.0039062500005	102.9605865478516	-1838.313232421876	893.2519531250005	188.4205627441407	-1778.693481445313	1012.187927246094	135.3494873046876	-1865.900634765626	180.8367614746094	247.7164154052736	nan	nan	nan	-1846.464477539063	862.822387695313	118.674919128418	-1855.325439453126	870.7384643554692	167.7403411865235	-1613.312377929688	551.6041259765627	15.25582504272462	-1670.152221679688	342.5524902343751	34.40098953247072	
